<?xml version="1.0" standalone="no"?>
<!DOCTYPE svg PUBLIC "-//W3C//DTD SVG 20010904//EN"
 "http://www.w3.org/TR/2001/REC-SVG-20010904/DTD/svg10.dtd">
<svg version="1.0" xmlns="http://www.w3.org/2000/svg"
 width="426.000000pt" height="426.000000pt" viewBox="0 0 426.000000 426.000000"
 preserveAspectRatio="xMidYMid meet">
<metadata>
Created by potrace 1.14, written by Peter Selinger 2001-2017
</metadata>
<g transform="translate(0.000000,426.000000) scale(0.100000,-0.100000)"
fill="#000000" stroke="none">
<path d="M10 2130 l0 -2130 2120 0 2120 0 0 2130 0 2130 -2120 0 -2120 0 0
-2130z m730 480 c0 -319 3 -580 8 -579 4 0 64 68 133 152 70 84 265 316 434
517 168 201 330 393 358 427 l52 62 148 0 c81 1 147 -2 147 -5 0 -4 -355 -434
-626 -757 l-82 -99 30 -51 c48 -80 237 -406 587 -1012 73 -126 137 -234 140
-240 4 -5 20 -31 35 -57 l27 -48 -149 0 -148 0 -24 43 c-13 23 -65 114 -115
202 -114 197 -278 481 -415 720 -57 99 -111 192 -120 207 l-16 28 -101 -118
c-55 -66 -146 -173 -202 -239 l-101 -120 0 -362 0 -361 -130 0 -130 0 0 1135
0 1135 130 0 130 0 0 -580z m1990 -445 l0 -1025 500 0 500 0 0 -110 0 -110
-630 0 -630 0 0 1135 0 1135 130 0 130 0 0 -1025z"/>
</g>
</svg>
